<svg xmlns="http://www.w3.org/2000/svg" xmlns:xlink="http://www.w3.org/1999/xlink" width="30" height="30" viewBox="0 0 30 30"><defs><style>.a{fill:#fff;}.b{clip-path:url(#a);}</style><clipPath id="a"><rect class="a" width="30" height="30"/></clipPath></defs><g transform="translate(0.5 0.5)"><g transform="translate(-0.5 -0.5)"><g class="b"><g transform="translate(0.6 0.6)"><g transform="translate(0 0)"><path class="a" d="M15.014,9.458a.253.253,0,0,0,.336,0h0l2.4-2.4a.253.253,0,0,0,0-.336h0l-.672-.66a.229.229,0,0,0-.322-.014l-.014.014h0l-2.4,2.4a.229.229,0,0,0-.014.322l.014.014h0Z" transform="translate(2.854 1.198)"/><path class="a" d="M13.21,11.326a.2.2,0,0,0,.168-.072l1.416-1.416a.229.229,0,0,0,.014-.322L14.794,9.5h0l-.66-.66a.229.229,0,0,0-.322-.014l-.014.014h0l-1.416,1.416a.229.229,0,0,0-.014.322l.014.014h0l.66.66A.239.239,0,0,0,13.21,11.326Z" transform="translate(2.462 1.754)"/><path class="a" d="M19.443,7.932l-.672-.66a.229.229,0,0,0-.322-.014l-.014.014h0l-5.664,5.664a.24.24,0,0,0,0,.324h0l.672.672a.229.229,0,0,0,.322.014l.014-.014h0l5.664-5.664A.253.253,0,0,0,19.443,7.932Z" transform="translate(2.542 1.44)"/><path class="a" d="M17.792,11.472l-.672-.66A.229.229,0,0,0,16.8,10.8l-.014.014h0l-2.832,2.832a.215.215,0,0,0-.019.3l.019.019h0l.672.66a.229.229,0,0,0,.322.014l.014-.014h0L17.792,11.8a.253.253,0,0,0,0-.336Z" transform="translate(2.776 2.148)"/><path class="a" d="M17.1,10.672l.66.66a.229.229,0,0,0,.322.014l.014-.014h0l1.9-1.884a.253.253,0,0,0,0-.336h0l-.672-.66A.229.229,0,0,0,19,8.438l-.014.014h0L17.1,10.336a.229.229,0,0,0-.014.322Z" transform="translate(3.406 1.676)"/><path class="a" d="M20.387,11.808a.253.253,0,0,0,0-.336h0l-.672-.66a.229.229,0,0,0-.322-.014l-.014.014h0L15.131,15.06a.253.253,0,0,0,0,.336h0l.672.66a.229.229,0,0,0,.322.014l.014-.014h0Z" transform="translate(3.013 2.148)"/><path class="a" d="M28.6,12.012,16.788.2a.713.713,0,0,0-.5-.2,9.721,9.721,0,0,0-6.252,2.292H9.96L7.8.2A.708.708,0,0,0,7.32,0H6.84a.719.719,0,0,0-.708.708V7.4A9.337,9.337,0,0,0,.2,10.128a.713.713,0,0,0-.2.5v17.46a.708.708,0,0,0,.708.708H12.984a.708.708,0,0,0,.708-.708h0V17.052L18.6,21.984a.707.707,0,0,0,1,0h0l8.976-8.976a.707.707,0,0,0,0-1Zm-14.9.324,5.46-5.46a.229.229,0,0,0,.014-.322l-.014-.014h0l-.672-.66a.215.215,0,0,0-.3-.019l-.019.019h0l-4.5,4.5a.715.715,0,0,0-.168-.252,9.377,9.377,0,0,0-5.16-2.64A8.027,8.027,0,0,1,9.972,4.356l.624.636A2.136,2.136,0,1,0,11.6,3.984l-.636-.636a8.256,8.256,0,0,1,5.04-1.92L27.084,12.5l-7.956,7.98L13.692,15ZM12.6,5.928a.73.73,0,0,0,.18-.708.733.733,0,0,1,.48.888.7.7,0,0,1-.853.491l-.035-.011a.709.709,0,0,1-.48-.48A.671.671,0,0,0,12.6,5.928Zm-5.052-.42v-3.6L9,3.348a9.839,9.839,0,0,0-1.44,2.16Zm0,5.82a.1.1,0,0,1,0,.06.7.7,0,0,1-.479.86l-.013,0a.709.709,0,0,1-.875-.487v0a.756.756,0,0,1,0-.432.708.708,0,0,0,1.332,0ZM6.132,9.564a2.124,2.124,0,1,0,1.416,0V8.82a8.015,8.015,0,0,1,4.728,2.1V27.384H1.476V10.92a8.019,8.019,0,0,1,4.668-2.1Z" transform="translate(0 0)"/><path class="a" d="M5.514,22.014v.708a.228.228,0,0,0,.228.228H6.69a.228.228,0,0,0,.24-.216v-.012h0v-.708c.937-.937.234-3.16-.7-4.1l.7-.7H5.514A.948.948,0,1,1,5.3,15.33a.9.9,0,0,1,.212,0H6.93a.936.936,0,0,1,.936.936v.24a.241.241,0,0,0,.24.24h.948a.241.241,0,0,0,.24-.24h0v-.228a2.4,2.4,0,0,0-2.4-2.4h0V13.17a.241.241,0,0,0-.24-.24H5.742a.239.239,0,0,0-.228.24h0v.708a2.4,2.4,0,0,0,0,4.716H6.93a.948.948,0,1,1,0,1.9H5.514a.947.947,0,0,1-.948-.876v-.24a.239.239,0,0,0-.24-.228H3.39a.239.239,0,0,0-.24.228h0v.24A2.4,2.4,0,0,0,5.514,22.014Z" transform="translate(0.63 2.586)"/></g></g></g></g></g></svg>