<svg xmlns="http://www.w3.org/2000/svg" width="30" height="23.303" viewBox="0 0 30 23.303"><defs><style>.a{fill:#fff;}</style></defs><g transform="translate(-905.945 -36.016)"><path class="a" d="M920.92,59.317q-5.511,0-11.021,0c-2.988-.006-3.95-.941-3.951-3.876,0-5.124-.012-10.248.032-15.371.026-3.113.872-4.016,3.963-4.032,7.491-.039,14.984-.015,22.475.03,2.476.015,3.472,1,3.491,3.442q.066,8.12,0,16.241c-.022,2.614-1,3.528-3.682,3.553-3.77.034-7.541.008-11.311.008ZM933.311,47.8h.017c0-2.27.008-4.54,0-6.81-.008-1.623-.461-2.16-2.017-2.188-2.85-.052-5.7-.048-8.552-.034a1.7,1.7,0,0,0-1.894,1.89q0,6.953.02,13.906a1.79,1.79,0,0,0,2.068,2.018c2.754-.028,5.509,0,8.263-.029,1.623-.018,2.066-.462,2.089-2.09C933.335,52.24,933.311,50.019,933.311,47.8Z" transform="translate(0)"/><g transform="translate(922.698 43.196)"><path class="a" d="M971.434,60.751h-6.746a1.027,1.027,0,1,0,0,2.053h6.746a1.027,1.027,0,1,0,0-2.053Z" transform="translate(-963.661 -60.751)"/><path class="a" d="M971.434,72.625h-6.746a1.027,1.027,0,1,0,0,2.053h6.746a1.027,1.027,0,1,0,0-2.053Z" transform="translate(-963.661 -69.178)"/><path class="a" d="M971.434,84.5h-6.746a1.027,1.027,0,1,0,0,2.053h6.746a1.027,1.027,0,1,0,0-2.053Z" transform="translate(-963.661 -77.605)"/></g></g></svg>