<svg xmlns="http://www.w3.org/2000/svg" width="29.612" height="30" viewBox="0 0 29.612 30"><defs><style>.a{fill:#fff;}</style></defs><path class="a" d="M233.924,155.589h0a.937.937,0,0,0,0,1.326L237.006,160a.164.164,0,0,1-.116.28H224.937a.937.937,0,0,0-.937.937h0a.937.937,0,0,0,.937.937H237.01a.114.114,0,0,1,.081.2l-3.167,3.167a.937.937,0,0,0,0,1.326h0a.937.937,0,0,0,1.326,0l4.962-4.962a.937.937,0,0,0,0-1.326l-4.962-4.962A.937.937,0,0,0,233.924,155.589Z" transform="translate(-210.875 -146.214)"/><path class="a" d="M19.688,28.125H2.813a.938.938,0,0,1-.938-.938V2.813a.938.938,0,0,1,.938-.937H19.688a.938.938,0,0,1,.938.938h0a.938.938,0,0,0,.938.938h0a.938.938,0,0,0,.938-.937V1.875A1.875,1.875,0,0,0,20.625,0H1.875A1.875,1.875,0,0,0,0,1.875v26.25A1.875,1.875,0,0,0,1.875,30h18.75A1.875,1.875,0,0,0,22.5,28.125v-.937a.938.938,0,0,0-.937-.938h0a.938.938,0,0,0-.937.938h0A.938.938,0,0,1,19.688,28.125Z"/></svg>