<svg xmlns="http://www.w3.org/2000/svg" width="30" height="28.676" viewBox="0 0 30 28.676"><defs><style>.a{fill:#fff;}</style></defs><path class="a" d="M938.437,1856.538c0-1.519.007-3.045-.141-4.553-.193-1.978-1.172-2.856-3.16-3.035-.655-.059-1.316-.061-1.974-.061q-10.259,0-20.519,0c-3.051,0-4.142,1.073-4.155,4.1-.015,3.7,0,7.4,0,11.1h-.017q0,5.091,0,10.183a19.534,19.534,0,0,0,.009,2.125c.136,1.243.767,1.507,1.708.707a12.485,12.485,0,0,0,1.931-1.932c1.433-1.9,3.328-2.359,5.613-2.314,5.419.109,10.841.068,16.262.032,3.4-.022,4.362-.979,4.405-4.349C938.447,1864.543,938.443,1860.54,938.437,1856.538Zm-15.088,12.154c-.61-.924-1.276-1.491-1.2-1.942a1.793,1.793,0,0,1,1.309-1.19c.436.007,1.162.79,1.2,1.278C924.7,1867.3,924.005,1867.817,923.349,1868.692Zm1.445-7.8c-.046.5-.906,1.357-1.279,1.3a2.174,2.174,0,0,1-1.465-1.311,11.07,11.07,0,0,1-.065-2.855h-.031a9.361,9.361,0,0,1,.057-2.556c.173-.588.856-1.4,1.342-1.418a1.952,1.952,0,0,1,1.472,1.258A31.226,31.226,0,0,1,924.793,1860.89Z" transform="translate(-908.44 -1848.887)"/></svg>