<svg xmlns="http://www.w3.org/2000/svg" width="30" height="22.288" viewBox="0 0 30 22.288"><defs><style>.a{fill:#fff;}</style></defs><g transform="translate(-907.526 -721.506)"><path class="a" d="M953.683,770.47a17.625,17.625,0,0,0-15.769.029,4.978,4.978,0,0,0-2.347,1.911,6.184,6.184,0,0,0-.577,3.6c.225,1.249,1.633.969,2.635.978,2.747.023,5.5.008,8.244.008v-.017c2.993,0,5.987.025,8.979-.01,1.529-.018,2-.566,1.99-2.093C956.825,772.663,955.5,771.343,953.683,770.47Z" transform="translate(-19.312 -33.216)"/><path class="a" d="M958.535,732.5a5.432,5.432,0,0,0,5.572-5.285,5.477,5.477,0,1,0-10.947-.078A5.51,5.51,0,0,0,958.535,732.5Z" transform="translate(-32.17 0)"/><path class="a" d="M916.246,740.742a1.23,1.23,0,1,0,0-2.459h-2.515v-2.516a1.23,1.23,0,0,0-2.46,0v2.516h-2.515a1.23,1.23,0,1,0,0,2.459h2.515v2.516a1.23,1.23,0,0,0,2.46,0v-2.516Z" transform="translate(0 -9.187)"/></g></svg>