<svg xmlns="http://www.w3.org/2000/svg" width="30" height="28.654" viewBox="0 0 30 28.654"><defs><style>.a{fill:#fff;}</style></defs><path class="a" d="M935.844,1633.738h-.019c0-3.673.019-7.346-.006-11.018-.023-3.369-.94-4.311-4.331-4.327q-10.656-.051-21.312-.01c-3.192.01-4.292,1.124-4.306,4.285q-.033,7.684-.008,15.368c.013,3.438.942,4.366,4.43,4.388,4.784.031,9.569-.05,14.353.021,6.3.093,4.357-.766,8.931,3.646a7.434,7.434,0,0,0,1.66.93,6.642,6.642,0,0,0,.581-1.829C935.871,1641.374,935.844,1637.556,935.844,1633.738Zm-8.308,2.714c-2.267.015-4.534,0-6.8,0v-.009c-2.219,0-4.438.011-6.657-.005-1.088-.008-2.151-.232-2.115-1.6.035-1.324,1.069-1.571,2.171-1.567q6.728.025,13.457.06c1.071.006,2.183.148,2.206,1.5C929.821,1636.3,928.657,1636.444,927.537,1636.451Zm.573-4.487c-2.41.037-4.82.012-7.23.012v.054q-3.037,0-6.074,0c-.337,0-.676.006-1.012-.017-1.028-.069-1.827-.473-1.809-1.631.018-1.182.891-1.51,1.887-1.547.914-.033,1.831.023,2.747.021q5.206-.01,10.412-.03a8.226,8.226,0,0,1,1.154.038c.885.124,1.619.495,1.616,1.516A1.513,1.513,0,0,1,928.109,1631.964Zm-.166-4.511q-7.021.047-14.043.011c-.985,0-1.9-.339-1.92-1.52-.021-1.3.954-1.539,2-1.545,2.316-.013,4.633,0,6.949,0v.033c2.317,0,4.633-.011,6.949.005.979.007,1.936.206,1.935,1.438C929.815,1627.03,928.944,1627.447,927.943,1627.453Z" transform="translate(-905.851 -1618.365)"/></svg>