<svg xmlns="http://www.w3.org/2000/svg" width="105.836" height="82.423" viewBox="0 0 105.836 82.423"><defs><style>.a{fill:#fe4518;}.b{fill:#707070;}</style></defs><g transform="translate(0 -10.651)"><path class="a" d="M69.249,53.265A26.636,26.636,0,1,1,42.614,26.629,26.636,26.636,0,0,1,69.249,53.265Z" transform="translate(-1.402 -1.402)"/><g transform="translate(45.892 34.064)"><path class="b" d="M260.965,231.832a2.811,2.811,0,0,1,2.81-2.81H318.1a2.81,2.81,0,0,1,0,5.62H263.775A2.811,2.811,0,0,1,260.965,231.832Z" transform="translate(-260.965 -214.034)"/><path class="b" d="M485.468,178.564a2.811,2.811,0,0,1,0-3.975l13-13-13-13a2.811,2.811,0,1,1,3.975-3.975L504.429,159.6a2.811,2.811,0,0,1,0,3.975L489.444,178.56a2.814,2.814,0,0,1-3.975,0Z" transform="translate(-445.31 -143.79)"/></g><path class="b" d="M41.211,93.074A41.211,41.211,0,1,1,79.568,36.787a2.81,2.81,0,1,1-5.23,2.057,35.59,35.59,0,1,0,0,26.042,2.81,2.81,0,1,1,5.23,2.057A41,41,0,0,1,41.211,93.074Z" transform="translate(0 0)"/></g></svg>