<svg xmlns="http://www.w3.org/2000/svg" xmlns:xlink="http://www.w3.org/1999/xlink" width="78.944" height="33.855" viewBox="0 0 78.944 33.855"><defs><style>.a{fill:url(#a);}</style><linearGradient id="a" x1="0.5" x2="0.5" y2="1" gradientUnits="objectBoundingBox"><stop offset="0" stop-color="#fe4518"/><stop offset="1" stop-color="#df2330"/></linearGradient></defs><g transform="translate(-100.857 -296.5)"><g transform="translate(100.857 296.5)"><path class="a" d="M-1687.715,413.929q0-.339,0-.679c0-4.72.161-4.84,4.794-4.5,1.307.1,1.942.618,1.932,1.934q-.021,2.714,0,5.429c.01,1.537.628,2.764,2.264,2.857,1.809.1,2.485-1.225,2.569-2.8.088-1.654.075-3.319,0-4.974-.076-1.694.5-2.634,2.358-2.424,4.267-.084,4.265-.147,4.257,4.041,0,1.131-.042,2.266.043,3.391.111,1.484.732,2.754,2.4,2.766,1.641.013,2.307-1.17,2.464-2.7a16.745,16.745,0,0,1,7.2-12.519,16.437,16.437,0,0,1,20.116,1.226c1.354,1.206,1.342,2.028-.061,3.226-2.874,2.452-2.814,2.521-6.038.678a9.736,9.736,0,0,0-14.457,7.668c-.607,5.217-3.034,8.37-7.631,9.046-1.88.276-3.917-.564-5.889-.847-.84-.12-1.913-.471-2.514-.109-6.013,3.615-14.4-.838-13.811-9.356C-1687.688,414.836-1687.715,414.382-1687.715,413.929Z" transform="translate(1687.749 -400.89)"/><path class="a" d="M-1313.245,518.421v.679c0,4.693-.207,4.849-4.831,4.468-1.351-.111-1.867-.707-1.842-2,.033-1.734.035-3.47,0-5.2-.036-1.585-.6-2.959-2.4-2.98s-2.406,1.307-2.435,2.92c-.031,1.734-.056,3.471-.01,5.2.039,1.446-.614,1.976-2.03,2.051-4.637.245-4.646.272-4.683-4.386-.008-1.056-.012-2.112-.056-3.167-.06-1.451-.7-2.561-2.239-2.631s-2.3.924-2.453,2.4a17.569,17.569,0,0,1-3.791,9.524,16.428,16.428,0,0,1-23.256,2.3c-1.894-1.585-1.9-1.969-.073-3.621a7.319,7.319,0,0,0,1.129-1.106c1.038-1.468,1.922-1.553,3.457-.36,6.113,4.751,14.393,1.317,15.652-6.361a20.4,20.4,0,0,1,.808-3.967c1.831-4.8,7.318-6.894,12.209-4.925a5.119,5.119,0,0,0,3.514.17c6.552-2.75,12.844.983,13.283,8.044.061.977.008,1.96.008,2.941Z" transform="translate(1392.189 -497.54)"/><circle class="a" cx="2.79" cy="2.79" r="2.79" transform="translate(36.682 14.138)"/></g></g></svg>