<svg xmlns="http://www.w3.org/2000/svg" width="376.211" height="161.338" viewBox="0 0 376.211 161.338"><defs><style>.a{fill:#fff;}</style></defs><g transform="translate(1687.749 -400.89)"><g transform="translate(-1687.749 400.89)"><path class="a" d="M-1687.588,463.031q0-1.617,0-3.234c-.007-22.491.764-23.064,22.846-21.431,6.228.461,9.255,2.945,9.206,9.218q-.1,12.935,0,25.871c.05,7.326,2.993,13.174,10.79,13.613,8.623.486,11.841-5.836,12.242-13.361.419-7.882.359-15.816,0-23.7-.364-8.072,2.4-12.553,11.237-11.554,20.336-.4,20.323-.7,20.289,19.256-.009,5.389-.2,10.8.2,16.162.531,7.071,3.488,13.122,11.428,13.182,7.822.06,10.993-5.578,11.74-12.844,2.569-24.975,13.739-45.1,34.317-59.658,28.736-20.335,69.534-17.612,95.863,5.843,6.452,5.748,6.4,9.666-.292,15.371-13.694,11.685-13.412,12.016-28.772,3.231-29.092-16.638-64.919,2.364-68.894,36.541-2.891,24.862-14.459,39.888-36.368,43.109-8.958,1.317-18.665-2.689-28.064-4.036-4-.574-9.114-2.243-11.981-.519-28.654,17.227-68.637-3.994-65.817-44.588C-1687.458,467.352-1687.588,465.187-1687.588,463.031Z" transform="translate(1687.749 -400.89)"/><path class="a" d="M-1119.483,563.2v3.235c0,22.363-.988,23.106-23.02,21.293-6.438-.529-8.9-3.368-8.778-9.52.158-8.264.167-16.537-.021-24.8-.172-7.555-2.868-14.1-11.424-14.2s-11.466,6.229-11.6,13.914c-.147,8.265-.268,16.54-.045,24.8.185,6.891-2.923,9.417-9.675,9.774-22.1,1.17-22.138,1.295-22.315-20.9-.039-5.031-.059-10.066-.266-15.092-.284-6.915-3.319-12.207-10.67-12.539-7.3-.33-10.971,4.4-11.687,11.46-1.71,16.847-7.313,32.081-18.064,45.385-27.342,33.837-77.508,38.858-110.827,10.963-9.024-7.555-9.05-9.382-.345-17.257,1.864-1.686,3.954-3.253,5.38-5.27,4.944-7,9.159-7.4,16.474-1.716,29.13,22.642,68.589,6.278,74.59-30.313,1.042-6.352,1.59-12.973,3.851-18.9,8.724-22.887,34.875-32.853,58.181-23.471,4.972,2,12.041,2.787,16.748.811,31.222-13.108,61.208,4.685,63.3,38.334.289,4.654.04,9.341.04,14.013Z" transform="translate(1495.694 -463.693)"/></g><circle class="a" cx="13.294" cy="13.294" r="13.294" transform="translate(-1512.938 468.264)"/></g></svg>