<svg xmlns="http://www.w3.org/2000/svg" width="22.001" height="22.001" viewBox="0 0 22.001 22.001"><defs><style>.a{fill:#828282;}</style></defs><g transform="translate(332 45)"><g transform="translate(-332 -45)"><path class="a" d="M-310.133-24.429l-6.391-6.391a8.664,8.664,0,0,0,1.942-5.471A8.719,8.719,0,0,0-323.291-45,8.719,8.719,0,0,0-332-36.291a8.719,8.719,0,0,0,8.709,8.709,8.664,8.664,0,0,0,5.471-1.942l6.391,6.391a.458.458,0,0,0,.648,0l.648-.648A.458.458,0,0,0-310.133-24.429Zm-13.158-4.986a6.883,6.883,0,0,1-6.875-6.875,6.883,6.883,0,0,1,6.875-6.875,6.883,6.883,0,0,1,6.875,6.875A6.883,6.883,0,0,1-323.291-29.416Z" transform="translate(332 45)"/></g></g></svg>