<svg xmlns="http://www.w3.org/2000/svg" width="22.997" height="30" viewBox="0 0 22.997 30"><defs><style>.a{fill:#fff;}</style></defs><g transform="translate(0 0)"><path class="a" d="M939.928,958.422h-6.161a3.7,3.7,0,1,0-5.107,0H922.5a1.541,1.541,0,0,0-1.541,1.541v14.073a1.541,1.541,0,0,0,1.541,1.541h17.429a1.541,1.541,0,0,0,1.541-1.541V959.963A1.541,1.541,0,0,0,939.928,958.422Zm-1.164,3.7h-15.1a.822.822,0,1,1,0-1.644h15.1a.822.822,0,1,1,0,1.644Z" transform="translate(-918.472 -945.577)"/><circle class="a" cx="3.698" cy="3.698" r="3.698" transform="matrix(0.383, -0.924, 0.924, 0.383, 0, 6.833)"/></g></svg>