<svg xmlns="http://www.w3.org/2000/svg" width="30" height="30" viewBox="0 0 30 30"><defs><style>.a{fill:#fff;}</style></defs><path class="a" d="M936.731,1172.061a4.636,4.636,0,0,0-8.34-2.793,8.126,8.126,0,0,0-1.482-.138H914.844a8.122,8.122,0,0,0-8.113,8.113v12.065a8.122,8.122,0,0,0,8.113,8.113h12.066a8.122,8.122,0,0,0,8.113-8.113v-12.065a8.1,8.1,0,0,0-.138-1.482A4.627,4.627,0,0,0,936.731,1172.061Zm-3.24,5.182v12.065a6.589,6.589,0,0,1-6.582,6.582H914.844a6.589,6.589,0,0,1-6.582-6.582v-12.065a6.589,6.589,0,0,1,6.582-6.582h12.066a6.612,6.612,0,0,1,.743.045,4.641,4.641,0,0,0,5.794,5.793A6.63,6.63,0,0,1,933.491,1177.243Z" transform="translate(-906.731 -1167.421)"/></svg>