<svg xmlns="http://www.w3.org/2000/svg" width="30" height="30" viewBox="0 0 30 30"><defs><style>.a{fill:#fff;}</style></defs><path class="a" d="M-218,49a15.016,15.016,0,0,0-15,15,14.826,14.826,0,0,0,3.958,10.132A14.9,14.9,0,0,0-218,79a14.9,14.9,0,0,0,11.042-4.868A15.013,15.013,0,0,0-203,64,15.016,15.016,0,0,0-218,49Zm9.3,23.549a12.647,12.647,0,0,1-9.3,4.077,12.647,12.647,0,0,1-9.3-4.077c-.317-.356-.594-.712-.871-1.069a13.725,13.725,0,0,1,9.1-4.789,6.248,6.248,0,0,1-5.106-6.135A6.191,6.191,0,0,1-218,54.343a6.191,6.191,0,0,1,6.174,6.214,6.216,6.216,0,0,1-5.106,6.135,14.162,14.162,0,0,1,9.1,4.789A7.863,7.863,0,0,1-208.7,72.549Z" transform="translate(233 -49)"/></svg>