<svg xmlns="http://www.w3.org/2000/svg" width="30" height="16.388" viewBox="0 0 30 16.388"><defs><style>.a{fill:#fff;}</style></defs><path class="a" d="M922.213,1414.542c2.867,0,5.743-.131,8.6.038a5.411,5.411,0,0,1,5.117,4.447,5.756,5.756,0,0,1-5.23,7.277c-4.363.239-8.748.2-13.12.1a3.678,3.678,0,0,1-3.808-3.8c.013-2.039,1.575-3.567,3.941-3.643,2.964-.1,5.932-.071,8.9-.067.988,0,1.942.257,1.979,1.462.041,1.32-.971,1.552-2.011,1.561-2.334.019-4.669-.009-7-.007a5,5,0,0,0-1.444.11c-.3.093-.518.46-.773.7.244.206.488.591.732.591,4.32,0,8.644.051,12.956-.147,1.349-.062,2.189-1.576,2.1-2.938a2.8,2.8,0,0,0-2.243-2.716,6.319,6.319,0,0,0-1.588-.167q-7-.034-14.006-.036c-3.312,0-5.562,1.6-6.109,4.307a5.164,5.164,0,0,0,4.046,6.124,14.541,14.541,0,0,0,2.754.181c3.4,0,6.808-.041,10.212-.059.339,0,.788-.082,1,.1.528.455,1.221.993,1.313,1.582.057.363-.865,1.261-1.355,1.266-4.811.054-9.638.195-14.429-.143-3.691-.261-6.677-4.167-6.641-7.909.039-4.092,2.89-7.71,6.8-8.077,3.082-.29,6.213-.058,9.323-.058Z" transform="translate(-906.094 -1414.494)"/></svg>