<svg xmlns="http://www.w3.org/2000/svg" width="30" height="28.82" viewBox="0 0 30 28.82"><defs><style>.a{fill:#fff;}</style></defs><g transform="translate(-906.348 -482.598)"><path class="a" d="M951.922,520.5a4.6,4.6,0,1,0-4.554,4.415A4.612,4.612,0,0,0,951.922,520.5Z" transform="translate(-25.736 -23.449)"/><path class="a" d="M986.5,527.849a2.3,2.3,0,0,0-2.948-.9c-.534.214-1.057.457-1.579.71l-3.245-.427a.709.709,0,0,0-.344,1.365l1.6.607c1.065.81,2.1,1.654,3.226,2.346a2.257,2.257,0,0,0,3.034-.494A2.44,2.44,0,0,0,986.5,527.849Z" transform="translate(-50.635 -31.228)"/><path class="a" d="M961.622,554.2l-.6-2.061a.709.709,0,0,0-1.388.235l.127,2.43a19.459,19.459,0,0,0-.818,2.412,2.336,2.336,0,0,0,1.431,2.75,2.369,2.369,0,0,0,3.027-.659,2.247,2.247,0,0,0,.2-2.964A21.577,21.577,0,0,0,961.622,554.2Z" transform="translate(-37.152 -48.832)"/><path class="a" d="M969.362,491a.709.709,0,0,0,1-.13l2-2.654a11.665,11.665,0,0,1,1.779-.852,2.386,2.386,0,0,0,1.2-3.1,2.637,2.637,0,0,0-2.942-1.618,2.4,2.4,0,0,0-1.991,2.788A8.528,8.528,0,0,1,970.54,487l-1.389,3.151A.709.709,0,0,0,969.362,491Z" transform="translate(-44.386)"/><path class="a" d="M914.65,537.679l-1.8.136c-1.293-.238-2.555-.472-3.825-.64a2.39,2.39,0,0,0-2.585,1.895,2.482,2.482,0,0,0,1.285,2.963,2.4,2.4,0,0,0,3.23-.777,12.468,12.468,0,0,1,.883-1.218l3.082-.976a.709.709,0,0,0-.267-1.382Z" transform="translate(0 -38.596)"/><path class="a" d="M927.719,501.745l-1.025-1.414c-.152-.861-.288-1.644-.454-2.42a2.529,2.529,0,0,0-2.7-2.144,2.661,2.661,0,0,0-2.42,2.337,2.524,2.524,0,0,0,2.08,2.752c.534.111,1.076.188,1.646.259l1.833,1.582a.709.709,0,0,0,1.037-.952Z" transform="translate(-10.44 -9.311)"/></g></svg>